<svg width="22" height="26" viewBox="0 0 22 26" fill="none" xmlns="http://www.w3.org/2000/svg">
<path d="M21.5 3.34091V22.6591C21.5 24.2255 20.1915 25.5 18.5833 25.5H3.41667C3.09424 25.5 2.83333 25.2456 2.83333 24.9318C2.83333 24.618 3.09424 24.3636 3.41667 24.3636H18.5833C19.5483 24.3636 20.3333 23.599 20.3333 22.6591V3.34091C20.3333 3.02713 20.5942 2.77273 20.9167 2.77273C21.2391 2.77273 21.5 3.02713 21.5 3.34091ZM3.41667 23.2273C1.80851 23.2273 0.5 21.9527 0.5 20.3864V5.61364C0.5 5.46299 0.561523 5.31845 0.670898 5.21191L5.33756 0.66646C5.44694 0.559925 5.59505 0.5 5.75 0.5H16.25C17.8582 0.5 19.1667 1.77453 19.1667 3.34091V20.3864C19.1667 21.9527 17.8582 23.2273 16.25 23.2273H3.41667ZM3.41667 22.0909H16.25C17.215 22.0909 18 21.3263 18 20.3864V3.34091C18 2.40097 17.215 1.63636 16.25 1.63636H5.99154L1.66667 5.8489V20.3864C1.66667 21.3263 2.45166 22.0909 3.41667 22.0909ZM7.5 5.61364V2.77273C7.5 2.45895 7.23909 2.20455 6.91667 2.20455C6.59424 2.20455 6.33333 2.45895 6.33333 2.77273V5.61364C6.33333 5.92686 6.07186 6.18182 5.75 6.18182H2.83333C2.5109 6.18182 2.25 6.43622 2.25 6.75C2.25 7.06378 2.5109 7.31818 2.83333 7.31818H5.75C6.71501 7.31818 7.5 6.55358 7.5 5.61364Z" fill="#E3E3E3"/>
</svg>
