<svg  viewBox="0 0 85 85" fill="none" xmlns="http://www.w3.org/2000/svg">
<rect x="1" y="1" width="83" height="83" rx="7" stroke="white" stroke-width="2"/>
<path d="M31.475 28.4219C29.2875 28.4219 27.3344 28.7969 25.6156 29.5469C23.8969 30.2812 22.4438 31.3281 21.2563 32.6875C20.0688 34.0469 19.1625 35.6719 18.5375 37.5625C17.9125 39.4375 17.6 41.5078 17.6 43.7734C17.6 46.8984 18.0922 49.6328 19.0766 51.9766C20.0609 54.3047 21.5375 56.1094 23.5063 57.3906C25.4906 58.6719 27.9594 59.3125 30.9125 59.3125C32.6313 59.3125 34.1938 59.1875 35.6 58.9375C37.0063 58.6719 38.3109 58.3359 39.5141 57.9297V60.0391C38.3734 60.4609 37.0844 60.8047 35.6469 61.0703C34.225 61.3359 32.5688 61.4688 30.6781 61.4688C27.2563 61.4688 24.3813 60.7344 22.0531 59.2656C19.7406 57.7969 17.9984 55.7344 16.8266 53.0781C15.6547 50.4219 15.0688 47.3203 15.0688 43.7734C15.0688 41.2266 15.4359 38.8906 16.1703 36.7656C16.9047 34.625 17.975 32.7734 19.3813 31.2109C20.8031 29.6328 22.5297 28.4141 24.5609 27.5547C26.5922 26.6797 28.9047 26.2422 31.4984 26.2422C33.1391 26.2422 34.7016 26.4062 36.1859 26.7344C37.6859 27.0469 39.0922 27.5078 40.4047 28.1172L39.4672 30.2266C38.2016 29.6016 36.9047 29.1484 35.5766 28.8672C34.2484 28.5703 32.8813 28.4219 31.475 28.4219ZM70.4 52.1641C70.4 54.2109 69.8844 55.9297 68.8531 57.3203C67.8219 58.6953 66.4234 59.7344 64.6578 60.4375C62.8922 61.125 60.8922 61.4688 58.6578 61.4688C57.2672 61.4688 56.0016 61.3984 54.8609 61.2578C53.7359 61.1328 52.7125 60.9609 51.7906 60.7422C50.8844 60.5234 50.0563 60.2734 49.3063 59.9922V57.5781C50.525 58.0469 51.9313 58.4609 53.525 58.8203C55.1344 59.1641 56.8844 59.3359 58.775 59.3359C60.5563 59.3359 62.1344 59.0781 63.5094 58.5625C64.9 58.0469 65.9938 57.2656 66.7906 56.2188C67.5875 55.1719 67.9859 53.8516 67.9859 52.2578C67.9859 50.8516 67.65 49.7031 66.9781 48.8125C66.3219 47.9062 65.3297 47.1328 64.0016 46.4922C62.6734 45.8359 61.0016 45.1719 58.9859 44.5C57.5797 44.0156 56.2984 43.5078 55.1422 42.9766C54.0016 42.4297 53.025 41.8047 52.2125 41.1016C51.4 40.3828 50.775 39.5234 50.3375 38.5234C49.9156 37.5078 49.7047 36.3125 49.7047 34.9375C49.7047 33.0469 50.1813 31.4609 51.1344 30.1797C52.1031 28.8828 53.4078 27.9062 55.0484 27.25C56.7047 26.5781 58.5641 26.2422 60.6266 26.2422C62.2672 26.2422 63.8219 26.3984 65.2906 26.7109C66.775 27.0078 68.2047 27.4609 69.5797 28.0703L68.7359 30.1562C67.3609 29.5625 65.9859 29.125 64.6109 28.8438C63.2359 28.5625 61.8766 28.4219 60.5328 28.4219C58.9234 28.4219 57.4859 28.6641 56.2203 29.1484C54.9703 29.6172 53.9781 30.3281 53.2438 31.2812C52.5094 32.2344 52.1422 33.4375 52.1422 34.8906C52.1422 36.3906 52.4781 37.6016 53.15 38.5234C53.8375 39.4453 54.8063 40.2109 56.0563 40.8203C57.3219 41.4297 58.8141 42.0234 60.5328 42.6016C62.5641 43.2891 64.3141 44.0156 65.7828 44.7812C67.2516 45.5312 68.3844 46.4844 69.1813 47.6406C69.9938 48.7969 70.4 50.3047 70.4 52.1641Z" fill="white"/>
</svg>
