<svg width="85" height="73" viewBox="0 0 85 73" fill="none" xmlns="http://www.w3.org/2000/svg">
<path d="M31.475 22.4219C29.2875 22.4219 27.3344 22.7969 25.6156 23.5469C23.8969 24.2812 22.4438 25.3281 21.2563 26.6875C20.0688 28.0469 19.1625 29.6719 18.5375 31.5625C17.9125 33.4375 17.6 35.5078 17.6 37.7734C17.6 40.8984 18.0922 43.6328 19.0766 45.9766C20.0609 48.3047 21.5375 50.1094 23.5063 51.3906C25.4906 52.6719 27.9594 53.3125 30.9125 53.3125C32.6313 53.3125 34.1938 53.1875 35.6 52.9375C37.0063 52.6719 38.3109 52.3359 39.5141 51.9297V54.0391C38.3734 54.4609 37.0844 54.8047 35.6469 55.0703C34.225 55.3359 32.5688 55.4688 30.6781 55.4688C27.2563 55.4688 24.3813 54.7344 22.0531 53.2656C19.7406 51.7969 17.9984 49.7344 16.8266 47.0781C15.6547 44.4219 15.0688 41.3203 15.0688 37.7734C15.0688 35.2266 15.4359 32.8906 16.1703 30.7656C16.9047 28.625 17.975 26.7734 19.3813 25.2109C20.8031 23.6328 22.5297 22.4141 24.5609 21.5547C26.5922 20.6797 28.9047 20.2422 31.4984 20.2422C33.1391 20.2422 34.7016 20.4062 36.1859 20.7344C37.6859 21.0469 39.0922 21.5078 40.4047 22.1172L39.4672 24.2266C38.2016 23.6016 36.9047 23.1484 35.5766 22.8672C34.2484 22.5703 32.8813 22.4219 31.475 22.4219ZM70.4 46.1641C70.4 48.2109 69.8844 49.9297 68.8531 51.3203C67.8219 52.6953 66.4234 53.7344 64.6578 54.4375C62.8922 55.125 60.8922 55.4688 58.6578 55.4688C57.2672 55.4688 56.0016 55.3984 54.8609 55.2578C53.7359 55.1328 52.7125 54.9609 51.7906 54.7422C50.8844 54.5234 50.0563 54.2734 49.3063 53.9922V51.5781C50.525 52.0469 51.9313 52.4609 53.525 52.8203C55.1344 53.1641 56.8844 53.3359 58.775 53.3359C60.5563 53.3359 62.1344 53.0781 63.5094 52.5625C64.9 52.0469 65.9938 51.2656 66.7906 50.2188C67.5875 49.1719 67.9859 47.8516 67.9859 46.2578C67.9859 44.8516 67.65 43.7031 66.9781 42.8125C66.3219 41.9062 65.3297 41.1328 64.0016 40.4922C62.6734 39.8359 61.0016 39.1719 58.9859 38.5C57.5797 38.0156 56.2984 37.5078 55.1422 36.9766C54.0016 36.4297 53.025 35.8047 52.2125 35.1016C51.4 34.3828 50.775 33.5234 50.3375 32.5234C49.9156 31.5078 49.7047 30.3125 49.7047 28.9375C49.7047 27.0469 50.1813 25.4609 51.1344 24.1797C52.1031 22.8828 53.4078 21.9062 55.0484 21.25C56.7047 20.5781 58.5641 20.2422 60.6266 20.2422C62.2672 20.2422 63.8219 20.3984 65.2906 20.7109C66.775 21.0078 68.2047 21.4609 69.5797 22.0703L68.7359 24.1562C67.3609 23.5625 65.9859 23.125 64.6109 22.8438C63.2359 22.5625 61.8766 22.4219 60.5328 22.4219C58.9234 22.4219 57.4859 22.6641 56.2203 23.1484C54.9703 23.6172 53.9781 24.3281 53.2438 25.2812C52.5094 26.2344 52.1422 27.4375 52.1422 28.8906C52.1422 30.3906 52.4781 31.6016 53.15 32.5234C53.8375 33.4453 54.8063 34.2109 56.0563 34.8203C57.3219 35.4297 58.8141 36.0234 60.5328 36.6016C62.5641 37.2891 64.3141 38.0156 65.7828 38.7812C67.2516 39.5312 68.3844 40.4844 69.1813 41.6406C69.9938 42.7969 70.4 44.3047 70.4 46.1641Z" fill="white"/>
</svg>
